<svg width="60" height="60" fill="none" xmlns="http://www.w3.org/2000/svg"><path d="M58.828 46.758h-1.407V33.789a1.172 1.172 0 00-2.343 0v12.969h-3.281v-33.75h1.758c.84 0 1.523.683 1.523 1.523v10.196a1.172 1.172 0 002.344 0V14.53a3.871 3.871 0 00-3.867-3.867h-1.758V4.336c0-.647-.525-1.172-1.172-1.172H34.687A5.854 5.854 0 0030 5.512a5.854 5.854 0 00-4.688-2.348H9.376c-.647 0-1.172.525-1.172 1.172v6.328H6.445a3.871 3.871 0 00-3.867 3.867v32.227H1.172C.525 46.758 0 47.283 0 47.93v2.11a6.805 6.805 0 006.797 6.796h46.406A6.805 6.805 0 0060 50.039v-2.11c0-.646-.525-1.171-1.172-1.171zM31.172 16.674v-7.65a3.52 3.52 0 013.515-3.516h14.766v35.349H34.687a5.83 5.83 0 00-3.515 1.174V16.674zm0 30.042a3.52 3.52 0 013.515-3.516h14.766v3.558H31.17l.002-.042zM10.547 5.508h14.765a3.52 3.52 0 013.516 3.515v33.009a5.828 5.828 0 00-3.515-1.175H10.546V5.507zm0 37.692h14.765a3.52 3.52 0 013.516 3.516l.002.042H10.547V43.2zM4.922 14.531c0-.84.684-1.523 1.524-1.523h1.757v33.75h-3.28V14.53zm52.734 35.508a4.458 4.458 0 01-4.453 4.453H6.797a4.458 4.458 0 01-4.453-4.453v-.937h55.312v.937z" fill="#fff"/><path d="M32.617 50.625h-5.176a1.172 1.172 0 000 2.344h5.176a1.172 1.172 0 000-2.344zM57.078 28.58a1.18 1.18 0 00-.828-.343 1.177 1.177 0 00-1.172 1.172c0 .308.125.61.343.829.218.218.52.343.829.343.308 0 .61-.125.828-.343a1.18 1.18 0 00.344-.829c0-.31-.125-.61-.343-.828zM43.845 10.662h-7.031a1.172 1.172 0 000 2.343h7.031a1.172 1.172 0 000-2.343zm0 5.625h-7.031a1.172 1.172 0 000 2.343h7.031a1.172 1.172 0 000-2.343zm0 5.625h-7.031a1.172 1.172 0 000 2.343h7.031a1.172 1.172 0 000-2.343zm0 5.625h-7.031a1.172 1.172 0 000 2.343h7.031a1.172 1.172 0 000-2.343zm0 5.625h-7.031a1.172 1.172 0 000 2.343h7.031a1.172 1.172 0 000-2.343z" fill="#fff"/><path d="M23.22 21.897h-7.03a1.172 1.172 0 100 2.344h7.031a1.172 1.172 0 000-2.344zm0 5.64h-7.03a1.172 1.172 0 000 2.343h7.031a1.172 1.172 0 000-2.343zm0 5.639h-2.75a1.172 1.172 0 000 2.344h2.751a1.172 1.172 0 000-2.344zm-6.202.344a1.18 1.18 0 00-.829-.343c-.309 0-.61.124-.83.342a1.18 1.18 0 000 1.658c.22.218.521.344.83.344.309 0 .611-.126.829-.344a1.18 1.18 0 00.343-.828c0-.308-.125-.61-.343-.83zm6.328-21.137L19.268 9.77a2.234 2.234 0 00-3.44 1.881v5.227a2.234 2.234 0 003.44 1.882l4.078-2.614a2.225 2.225 0 001.029-1.881c0-.765-.384-1.469-1.029-1.882zm-5.174 4.296V11.85l3.766 2.414-3.766 2.414z" fill="#B20932"/></svg>