<svg width="60" height="60" fill="none" xmlns="http://www.w3.org/2000/svg"><g clip-path="url(#clip0_503:6125)"><path d="M20.742 6.798c.647 0 1.172-.525 1.172-1.172V1.173C21.914.526 21.389 0 20.742 0H5.39c-.648 0-1.172.525-1.172 1.172v3.515H1.172A1.174 1.174 0 000 5.86v20.86c0 .646.525 1.171 1.172 1.171h15.351c.647 0 1.172-.524 1.172-1.172v-3.515h3.047c.647 0 1.172-.525 1.172-1.172v-7.965a1.172 1.172 0 00-2.344 0v6.793h-1.875v-9.424c0-.31-.122-.607-.34-.826l-5.548-5.576a1.172 1.172 0 00-.83-.346H6.562V2.345H19.57v3.281c0 .647.525 1.172 1.172 1.172zM12.148 8.7l1.557 1.564h-1.557V8.7zM9.805 7.032v4.404c0 .647.524 1.172 1.172 1.172h4.374v12.94H2.344V7.031h7.46z" fill="#fff"/><path d="M21.57 8.946a1.18 1.18 0 00-.828-.343c-.309 0-.61.125-.829.343a1.18 1.18 0 00-.343.829 1.176 1.176 0 001.172 1.172 1.176 1.176 0 001.172-1.172c0-.308-.126-.61-.344-.829zM58.828 0H43.477c-.647 0-1.172.525-1.172 1.172v3.516h-3.047c-.647 0-1.172.525-1.172 1.172v20.859c0 .647.525 1.172 1.172 1.172h15.351c.647 0 1.172-.525 1.172-1.172v-3.516h3.047c.647 0 1.172-.524 1.172-1.172V1.172C60 .525 59.475 0 58.828 0zm-5.39 25.547H40.43V7.032h7.46v4.404c0 .647.526 1.171 1.173 1.171h4.374v12.94zm-3.204-15.283V8.699l1.557 1.565h-1.556zm7.422 10.596h-1.875v-9.424c0-.31-.123-.607-.341-.827l-5.546-5.576a1.172 1.172 0 00-.831-.345h-4.415V2.344h13.008V20.86zM30 15.117c-.648 0-1.172.525-1.172 1.172v4.922a1.172 1.172 0 002.343 0v-4.922c0-.647-.524-1.172-1.171-1.172zm.828 9.445A1.18 1.18 0 0030 24.22a1.18 1.18 0 00-.829.343 1.18 1.18 0 00-.343.829A1.173 1.173 0 0030 26.564a1.176 1.176 0 001.171-1.172c0-.308-.125-.61-.343-.829zm-4.433.418l-1.528-1.528a1.172 1.172 0 00-1.658 1.657l1.528 1.528a1.168 1.168 0 001.658 0c.457-.458.457-1.2 0-1.657zm10.321-1.585a1.172 1.172 0 00-1.657 0l-1.58 1.579a1.172 1.172 0 001.658 1.657l1.58-1.579c.457-.458.457-1.2 0-1.657zm9.534 26.501a3.964 3.964 0 00-1.669-.084l.054-.2a3.964 3.964 0 00-.398-3.028 3.964 3.964 0 00-2.423-1.859 3.989 3.989 0 00-.8-.13v-.852c0-5.678-4.318-10.366-9.843-10.953v-2.775a1.172 1.172 0 00-2.343 0v2.775c-5.526.587-9.844 5.275-9.844 10.953v6.487a3.961 3.961 0 00-2.269 1.814 3.962 3.962 0 00-.399 3.026l1.08 4.059a1.172 1.172 0 102.264-.602l-1.08-4.062a1.635 1.635 0 01.165-1.249 1.64 1.64 0 011-.767 1.635 1.635 0 011.248.165c.38.22.653.575.767 1l1.45 5.41a1.171 1.171 0 002.326-.196V43.202c0-.907.738-1.646 1.646-1.646.907 0 1.646.739 1.646 1.646v15.626a1.172 1.172 0 002.343 0v-2.561l3.29-12.28c.115-.424.387-.78.768-1a1.648 1.648 0 012.413 1.851l-3.33 12.43a1.152 1.152 0 00-.029.144l-.298 1.112a1.172 1.172 0 002.264.607l2.943-10.978a1.648 1.648 0 012.016-1.164 1.648 1.648 0 011.163 2.016l-.918 3.426c-.033.094-.064.19-.09.288l-1.536 5.775-.008.03v.002a1.171 1.171 0 002.262.612l.002-.007 1.607-5.992a1.647 1.647 0 012.952-.213c.22.381.279.825.164 1.252l-1.155 4.349a1.172 1.172 0 002.265.602l1.155-4.347a3.994 3.994 0 00-2.822-4.886zm-23.058 1.536a3.993 3.993 0 00-1.864-1.211v-3.352h1.864v4.563zm5.636-11.863a3.965 3.965 0 00-1.646-.356c-2.2 0-3.99 1.79-3.99 3.99v1.322h-1.864v-.782c0-4.384 3.27-8.016 7.5-8.59v4.416zm8.256.99a3.994 3.994 0 00-4.886 2.822l-1.027 3.83v-4.009c0-.111-.005-.221-.014-.33.008-.058.014-.117.014-.177v-7.542a8.695 8.695 0 017.083 5.935 3.97 3.97 0 00-1.17-.529z" fill="#fff"/><path d="M10.758 13.708H6.351a1.172 1.172 0 000 2.344h4.407a1.172 1.172 0 000-2.344zm0 4.687H6.351a1.172 1.172 0 000 2.344h4.407a1.172 1.172 0 000-2.344zm38.379-4.687H44.73a1.172 1.172 0 000 2.344h4.407a1.172 1.172 0 000-2.344zm0 4.687H44.73a1.172 1.172 0 000 2.344h4.407a1.172 1.172 0 000-2.344z" fill="#B20932"/></g><defs><clipPath id="clip0_503:6125"><path fill="#fff" d="M0 0h60v60H0z"/></clipPath></defs></svg>