<svg width="60" height="60" fill="none" xmlns="http://www.w3.org/2000/svg"><g clip-path="url(#clip0_503:5971)"><path d="M53.379 45.332h-3.223v-8.977a1.172 1.172 0 00-2.343 0v8.977H44.59a6.629 6.629 0 00-6.621 6.62v3.692c0 .647.524 1.172 1.172 1.172h19.687c.647 0 1.172-.525 1.172-1.172v-3.691a6.628 6.628 0 00-6.621-6.621zm4.277 9.14H40.313v-2.52a4.282 4.282 0 014.277-4.276h8.789a4.282 4.282 0 014.277 4.277v2.52zM41.526 3.145a8.575 8.575 0 00-6.103 2.528L32.685 8.41a7.945 7.945 0 00-4.836-1.626 7.955 7.955 0 00-5.661 2.345l-2.184 2.184a1.173 1.173 0 000 1.657l9.665 9.665a1.169 1.169 0 001.658 0l2.183-2.183c2.821-2.82 3.092-7.24.816-10.368L37.08 7.33a6.246 6.246 0 014.446-1.842 6.294 6.294 0 016.287 6.287v15.042a1.172 1.172 0 002.343 0V11.775c0-4.759-3.871-8.63-8.63-8.63zm-9.673 15.65l-1.355 1.354-8.008-8.008 1.355-1.355a6.83 6.83 0 01.232-.219l5.354 5.354a1.169 1.169 0 001.657 0 1.17 1.17 0 000-1.657L26.196 9.37a5.68 5.68 0 011.653-.243c1.512 0 2.935.589 4.004 1.658a5.67 5.67 0 010 8.008zm17.96 12.135a1.18 1.18 0 00-.829-.344c-.308 0-.61.125-.828.343a1.18 1.18 0 00-.343.829c0 .308.125.61.343.828.218.218.52.344.828.344.309 0 .61-.126.829-.344a1.18 1.18 0 00.343-.828c0-.308-.125-.61-.343-.829zM34.38 54.512a3.754 3.754 0 01-3.75-3.75 3.754 3.754 0 013.75-3.75 1.172 1.172 0 000-2.344h-6.865a4.605 4.605 0 00.608-2.291v-9.95a4.64 4.64 0 00-4.635-4.634H9.79a4.64 4.64 0 00-4.635 4.635v9.949c0 .837.225 1.621.614 2.3A6.101 6.101 0 000 50.762a6.1 6.1 0 006.094 6.093h28.285a1.172 1.172 0 000-2.343zM7.497 32.428a2.294 2.294 0 012.291-2.291h13.7a2.294 2.294 0 012.29 2.29v9.95a2.294 2.294 0 01-2.29 2.29h-13.7a2.294 2.294 0 01-2.29-2.29v-9.95zm5.495 22.084h-6.9a3.754 3.754 0 01-3.75-3.75 3.754 3.754 0 013.75-3.75h6.9a6.062 6.062 0 00-1.296 3.75c0 1.413.485 2.715 1.296 3.75zm9.859-2.5h5.564a6.07 6.07 0 001.163 2.5H17.791a3.754 3.754 0 01-3.75-3.75 3.754 3.754 0 013.75-3.75h11.788a6.07 6.07 0 00-1.194 2.657h-5.533a1.172 1.172 0 000 2.344z" fill="#fff"/><path d="M19.56 50.012a1.181 1.181 0 00-.828-.343c-.308 0-.61.125-.828.343a1.18 1.18 0 00-.343.829 1.178 1.178 0 001.171 1.172 1.177 1.177 0 001.172-1.172c0-.309-.125-.61-.343-.829zM7.977 18.742a1.18 1.18 0 00-.829-.344c-.308 0-.61.125-.828.344a1.18 1.18 0 00-.343.828 1.176 1.176 0 001.171 1.172c.309 0 .611-.125.829-.344a1.18 1.18 0 00.343-.828c0-.308-.125-.61-.343-.828zm10.303-5.236a1.172 1.172 0 00-1.59-.469l-6.394 3.484a1.172 1.172 0 101.121 2.058l6.394-3.484c.568-.31.778-1.021.468-1.59zm12.218 12.138c-.647 0-1.172.525-1.172 1.172v7.617a1.172 1.172 0 002.344 0v-7.617c0-.647-.525-1.172-1.172-1.172z" fill="#fff"/><path d="M20.14 35.433l-4.479-2.871a2.338 2.338 0 00-3.601 1.969v5.742a2.339 2.339 0 003.601 1.97l4.48-2.871a2.33 2.33 0 001.077-1.97 2.33 2.33 0 00-1.077-1.97zm-5.737 4.832v-5.726l4.467 2.864-4.467 2.862z" fill="#B20932"/><path d="M45.083 50.121a1.18 1.18 0 00-.828-.343c-.308 0-.61.125-.829.343a1.18 1.18 0 00-.343.828c0 .309.125.611.343.829.218.218.52.343.829.343.308 0 .61-.125.828-.343a1.18 1.18 0 00.344-.828c0-.309-.126-.611-.344-.829zm4.729 0a1.182 1.182 0 00-.829-.343c-.308 0-.61.125-.83.343a1.18 1.18 0 00.001 1.657c.219.218.521.343.83.343.308 0 .609-.125.828-.343a1.18 1.18 0 00.343-.828 1.18 1.18 0 00-.343-.829zm4.727 0a1.178 1.178 0 00-.829-.343c-.308 0-.61.125-.828.343a1.18 1.18 0 00-.343.828c0 .309.125.611.343.829.22.218.52.343.828.343.309 0 .611-.125.829-.343a1.18 1.18 0 00.343-.828 1.18 1.18 0 00-.343-.829z" fill="#fff"/></g><defs><clipPath id="clip0_503:5971"><path fill="#fff" d="M0 0h60v60H0z"/></clipPath></defs></svg>