<svg width="60" height="60" fill="none" xmlns="http://www.w3.org/2000/svg"><g clip-path="url(#clip0_503:6162)"><path d="M59.946 29.452l-6.883-21.75a1.172 1.172 0 00-.764-.764L30.549.055a1.172 1.172 0 00-1.472 1.47l1.628 5.145a1.174 1.174 0 00-.084.075L22.8 14.567a1.172 1.172 0 000 1.657 20.167 20.167 0 012.68 3.315l-.021.04-4.61 10.319a3.03 3.03 0 01-2.363 1.758l-3.05.395a5.048 5.048 0 00-3.467 2.056 5.048 5.048 0 00-.888 3.931 5.117 5.117 0 003.256 3.85l2.349.855.004 3.061a2.336 2.336 0 00-1.262 3.657l2.605 3.487v3.46C8.917 53.277 2.346 44.618 2.346 34.454c0-12.794 10.408-23.202 23.202-23.202a1.172 1.172 0 100-2.344c-6.823 0-13.239 2.657-18.063 7.482C2.66 21.216.002 27.631.002 34.454c0 6.824 2.658 13.24 7.483 18.064C12.309 57.343 18.725 60 25.548 60c6.823 0 13.238-2.657 18.063-7.482 4.825-4.825 7.483-11.24 7.483-18.063V31.54l2.16-2.162c.028-.027.053-.055.077-.084l5.144 1.628a1.172 1.172 0 001.47-1.47zM25.548 57.657c-1.777 0-3.508-.202-5.171-.582v-4.517c0-.253-.082-.499-.233-.701l-2.842-3.79a2.343 2.343 0 001.727-2.258v-3.066c0-.977-.616-1.86-1.534-2.195l-2.352-.862a2.763 2.763 0 01-1.758-2.078c-.14-.751.03-1.505.48-2.123a2.725 2.725 0 011.871-1.11l3.051-.395a5.388 5.388 0 004.203-3.127l3.9-8.73a19.592 19.592 0 011.73 8.085 1.173 1.173 0 001.172 1.173h.007c1.31 0 2.602.128 3.861.379v6.109a3.58 3.58 0 002.451 3.4l.92.306a1.239 1.239 0 01.206 2.264l-2.653 1.462a3.599 3.599 0 00-1.617 4.422l.087.227a3.581 3.581 0 001.725 1.914l3.674 1.863a23.07 23.07 0 01-12.905 3.93zM48.75 34.454c0 7.087-3.194 13.44-8.218 17.7l-4.692-2.38a1.239 1.239 0 01-.598-.663l-.087-.227c-.22-.575.02-1.233.56-1.53l2.653-1.463a3.584 3.584 0 00-.596-6.54l-.92-.306a1.239 1.239 0 01-.848-1.177v-5.49c2.89.96 5.544 2.594 7.772 4.822a1.168 1.168 0 001.657 0l3.317-3.317v.571zm-4.166.282c-3.8-3.43-8.573-5.413-13.65-5.67-.257-5.076-2.24-9.85-5.67-13.65L31.5 9.182l4.46 14.095c.116.364.4.649.764.764L50.82 28.5l-6.235 6.236zm5.009-9.082a1.155 1.155 0 00-.033-.133l-2.081-6.576a1.172 1.172 0 10-2.235.707l1.627 5.14-8.86-2.803L31.993 2.97l19.019 6.02 6.018 19.019-7.437-2.354z" fill="#fff"/><path d="M45.828 14.171a1.176 1.176 0 00-.829-.343 1.176 1.176 0 00-1.171 1.171c0 .309.125.611.343.829.218.218.52.343.828.343.309 0 .611-.125.829-.343a1.18 1.18 0 00.343-.829c0-.309-.125-.61-.343-.828z" fill="#fff"/><path d="M11.544 20.516a1.171 1.171 0 00-1.654.102 20.868 20.868 0 00-5.238 13.836 1.172 1.172 0 002.344 0c0-4.531 1.651-8.893 4.65-12.284a1.172 1.172 0 00-.102-1.654zm3.427-2.749a1.172 1.172 0 00-1.635-.27l-.02.015a1.172 1.172 0 101.376 1.898l.01-.008c.526-.377.647-1.11.27-1.635z" fill="#B20932"/></g><defs><clipPath id="clip0_503:6162"><path fill="#fff" d="M0 0h60v60H0z"/></clipPath></defs></svg>