<svg width="60" height="60" fill="none" xmlns="http://www.w3.org/2000/svg"><g clip-path="url(#clip0_503:5962)"><path d="M27.686 40.695c.458-.458.458-1.2 0-1.658a1.173 1.173 0 100 1.658zm-5.559-27.808c0 7.106 5.792 12.887 12.912 12.887 7.12 0 12.912-5.781 12.912-12.887C47.951 5.781 42.16 0 35.04 0c-7.12 0-12.912 5.781-12.912 12.887zm23.477 0c0 5.814-4.74 10.544-10.565 10.544-5.825 0-10.565-4.73-10.565-10.544S29.214 2.343 35.04 2.343c5.826 0 10.565 4.73 10.565 10.544z" fill="#fff"/><path d="M13.579 59.653a1.175 1.175 0 001.656.01l5.692-5.596a3.535 3.535 0 00.835-3.635l1.224-1.178a3.504 3.504 0 012.445-.986h15.604a10.52 10.52 0 007.37-2.988c.081-.08-.62.745 10.645-12.693a4.686 4.686 0 00-.557-6.605 4.714 4.714 0 00-6.588.523L44.98 33.61a4.721 4.721 0 00-3.65-1.744H28.24a15.17 15.17 0 00-5.878-1.171c-5.652 0-10.588 2.605-13.237 7.49a3.51 3.51 0 00-3.14.972l-5.583 5.59A1.17 1.17 0 00.4 46.399l13.18 13.254zm8.782-26.615c1.798 0 3.536.36 5.168 1.073.148.065.308.099.47.099h13.33a2.352 2.352 0 012.348 2.342 2.348 2.348 0 01-2.348 2.344h-9.577a1.172 1.172 0 100 2.343h9.577a4.696 4.696 0 004.654-5.3c6.7-6.873 7.646-7.84 7.686-7.887a2.359 2.359 0 013.31-.28 2.345 2.345 0 01.275 3.307L46.725 43.641a8.182 8.182 0 01-5.69 2.284H25.431a5.84 5.84 0 00-4.075 1.643l-.998.96-9.196-9.177c2.15-4.024 6.182-6.313 11.199-6.313zM7.646 40.812a1.173 1.173 0 011.454-.164c.203.123-.38-.407 10.167 10.105.469.468.444 1.215.006 1.651l-4.852 4.77L2.887 45.576l4.76-4.763z" fill="#fff"/><path d="M33.63 5.858V7.23a3.52 3.52 0 00-2.347 3.313 3.522 3.522 0 003.522 3.515c.647 0 1.173.525 1.173 1.171s-.526 1.172-1.173 1.172c-.502 0-1.043-.315-1.524-.887a1.176 1.176 0 00-1.654-.143 1.17 1.17 0 00-.143 1.651c.627.745 1.365 1.264 2.147 1.526v1.367a1.173 1.173 0 002.347 0v-1.372a3.521 3.521 0 002.348-3.314 3.522 3.522 0 00-3.521-3.514 1.174 1.174 0 01-1.174-1.172c0-.646.526-1.172 1.174-1.172.416 0 .855.212 1.27.613.465.45 1.208.437 1.66-.027a1.17 1.17 0 00-.028-1.657c-.596-.575-1.192-.9-1.729-1.079V5.859a1.173 1.173 0 00-2.347 0z" fill="#B20932"/></g><defs><clipPath id="clip0_503:5962"><path fill="#fff" d="M0 0h60v60H0z"/></clipPath></defs></svg>