<svg width="60" height="60" fill="none" xmlns="http://www.w3.org/2000/svg"><g clip-path="url(#clip0_503:5855)"><path d="M31.308 28.812a1.17 1.17 0 00.668-.667l1.187-3.053h22.502a1.172 1.172 0 000-2.344 3.989 3.989 0 01-3.984-3.984 3.99 3.99 0 013.984-3.985 1.172 1.172 0 000-2.344H33.329l-3.575-3.574 1.654-5.476 5.064 5.064a1.172 1.172 0 001.657-1.657L31.681.343A1.171 1.171 0 0030.514.05L10.149 6.203a1.17 1.17 0 00-.783.782L3.213 27.35a1.172 1.172 0 001.46 1.461l7.35-2.22 6.46 6.458a1.172 1.172 0 001.253.264l.015-.006v20.364A6.336 6.336 0 0026.079 60h29.586c.647 0 1.172-.525 1.172-1.172v-25.49a1.172 1.172 0 00-2.344 0v24.318H26.079a3.989 3.989 0 01-3.984-3.984V32.396l9.213-3.584zm3.436-7.786l.003-.006 1.73-4.447a1.172 1.172 0 00-.264-1.254l-.54-.54h15.079a6.298 6.298 0 00-1.415 3.985c0 1.508.53 2.896 1.415 3.984H34.075l.67-1.722zM6.09 25.936l5.339-17.671 15.296-4.621-7.473 7.472a1.172 1.172 0 001.658 1.657l7.472-7.472-4.621 15.296-17.67 5.338zM19.6 30.85l-5.03-5.03 10.47-3.163a1.17 1.17 0 00.783-.783l3.163-10.47 5.03 5.03-.797 2.05-1.2-1.201a1.172 1.172 0 00-1.658 1.657l1.93 1.93-2.312 5.944L19.6 30.85z" fill="#fff"/><path d="M56.493 27.96a1.18 1.18 0 00-.828-.344c-.308 0-.61.126-.828.344a1.18 1.18 0 00-.344.828c0 .308.125.61.343.829.218.218.52.343.829.343.308 0 .61-.125.828-.343a1.18 1.18 0 00.344-.829c0-.308-.126-.61-.344-.828z" fill="#fff"/><path d="M42.235 32.468h-7.882a4.971 4.971 0 00-4.966 4.965v7.882a4.971 4.971 0 004.966 4.966h7.882a4.971 4.971 0 004.965-4.966v-7.882a4.971 4.971 0 00-4.965-4.965zm2.622 12.847a2.625 2.625 0 01-2.622 2.622h-7.882a2.625 2.625 0 01-2.622-2.622v-7.882a2.625 2.625 0 012.622-2.622h7.882a2.625 2.625 0 012.622 2.622v7.882z" fill="#B20932"/><path d="M41.233 39.942l-2.97-1.903a1.946 1.946 0 00-2.995 1.638v3.806a1.945 1.945 0 002.995 1.638l2.97-1.903c.56-.36.895-.972.895-1.638 0-.666-.334-1.279-.895-1.638zm-3.621 2.813v-2.35l1.833 1.175-1.833 1.175z" fill="#B20932"/><path d="M18.423 13.602a1.174 1.174 0 00-2 .827c0 .31.124.612.343.83a1.176 1.176 0 001.657 0 1.18 1.18 0 00.343-.83c0-.308-.125-.609-.343-.827z" fill="#fff"/></g><defs><clipPath id="clip0_503:5855"><path fill="#fff" d="M0 0h60v60H0z"/></clipPath></defs></svg>