<svg width="28" height="28" fill="none" xmlns="http://www.w3.org/2000/svg"><path d="M14 26.944a.438.438 0 00-.62.62l.31.308a.438.438 0 00.618 0l.31-.309a.438.438 0 00-.618-.619zm-9.709-9.709a.437.437 0 10-.619.62l.656.655a.438.438 0 10.62-.619l-.657-.656zm7.766 7.769a.438.438 0 00-.619.62l.657.655a.438.438 0 10.619-.619l-.657-.656zM2.35 15.295a.438.438 0 00-.618.62l.656.656a.438.438 0 00.62-.62l-.657-.656zm7.767 7.766a.438.438 0 10-.62.62l.657.656a.438.438 0 00.62-.62l-.657-.656zm-1.942-1.942a.438.438 0 10-.62.619l.657.656a.437.437 0 10.619-.62l-.656-.655zm-1.941-1.941a.437.437 0 10-.619.62l.656.656a.439.439 0 00.62-.62l-.657-.656zM1.056 13.38a.437.437 0 00-.62 0l-.308.311a.437.437 0 000 .62l.309.308a.438.438 0 00.619-.62.438.438 0 000-.618zm7.147-7.765l-.656.656a.438.438 0 10.619.619l.656-.656a.438.438 0 10-.619-.62zm1.942-1.943l-.656.656a.438.438 0 10.62.62l.655-.657a.438.438 0 10-.619-.619zM6.263 7.555l-.657.656a.438.438 0 10.62.62l.656-.657a.438.438 0 10-.62-.619zm5.823-5.823l-.656.656a.437.437 0 10.619.62l.656-.657a.438.438 0 00-.62-.62zM4.32 9.498l-.657.656a.438.438 0 00.62.62l.656-.657a.438.438 0 10-.62-.62zm-1.94 1.943l-.657.656a.438.438 0 10.619.62l.656-.657a.438.438 0 00-.619-.619zM13.691.127l-.31.309a.437.437 0 10.619.619.437.437 0 10.619-.62l-.31-.308a.438.438 0 00-.618 0zm8.386 8.822a.437.437 0 00.308-.746l-.656-.656a.438.438 0 00-.62.619l.657.656a.438.438 0 00.31.127zm1.94 1.941a.437.437 0 00.309-.747l-.657-.656a.438.438 0 00-.619.62l.656.655a.438.438 0 00.311.127zm-3.892-3.892a.437.437 0 00.309-.746l-.656-.656a.438.438 0 00-.62.62l.657.655a.437.437 0 00.31.127zm5.525 5.705a.437.437 0 10.618-.619l-.656-.656a.438.438 0 00-.619.619l.656.656zM15.295 1.732a.437.437 0 000 .619l.656.656a.438.438 0 00.62-.619l-.657-.656a.437.437 0 00-.62 0zm1.94 1.94a.437.437 0 000 .619l.657.656a.438.438 0 00.619-.619l-.657-.656a.436.436 0 00-.619 0zm10.328 9.709a.438.438 0 00-.619.62.44.44 0 00.142.713.438.438 0 00.477-.095l.309-.308a.438.438 0 000-.62l-.309-.31zm-11.62 11.623l-.657.656a.438.438 0 10.62.62l.656-.657a.438.438 0 00-.62-.619zm5.823-5.826l-.656.657a.436.436 0 00.31.747.438.438 0 00.309-.128l.656-.657a.438.438 0 10-.62-.619zm1.943-1.943l-.657.656a.438.438 0 00.62.62l.656-.657a.437.437 0 10-.62-.619zm1.941-1.94l-.657.656a.438.438 0 10.62.62l.655-.657a.438.438 0 10-.619-.619zm-7.767 7.766l-.656.657a.436.436 0 00.31.747.438.438 0 00.309-.128l.656-.657a.438.438 0 10-.619-.619zm1.943-1.942l-.657.656a.439.439 0 00.62.619l.656-.656a.437.437 0 10-.62-.62zM14.309 3.628a.437.437 0 00-.617 0L3.629 13.69a.437.437 0 000 .617S13.679 24.37 13.692 24.37a.438.438 0 00.617 0l10.063-10.063a.438.438 0 000-.617L14.309 3.628zm4.552 8.892l-6.924 6.822a.438.438 0 01-.612 0L8.7 16.76a1.318 1.318 0 111.868-1.86l1.06 1.048 5.365-5.285a1.332 1.332 0 011.45-.278 1.313 1.313 0 01.418 2.136z" fill="#B20932"/></svg>