<svg width="70" height="70" fill="none" xmlns="http://www.w3.org/2000/svg"><path d="M63.164 6.016h-6.517V4.102A4.106 4.106 0 0052.545 0a4.106 4.106 0 00-4.101 4.102v1.914H25.475V4.102A4.106 4.106 0 0021.374 0a4.106 4.106 0 00-4.102 4.102v1.964a1.364 1.364 0 00-.364-.05H11.46a6.844 6.844 0 00-6.836 6.836v23.287a1.367 1.367 0 002.735 0V20.098h49.288a1.367 1.367 0 000-2.735H7.36v-4.511a4.106 4.106 0 014.1-4.102h5.448c.126 0 .248-.019.364-.05v1.759a4.106 4.106 0 004.102 4.101 4.106 4.106 0 004.101-4.101V8.75h22.969v1.709a4.106 4.106 0 004.101 4.101 4.106 4.106 0 004.102-4.101V8.75h6.517a4.106 4.106 0 014.102 4.102v51.952a2.465 2.465 0 01-2.462 2.462 2.465 2.465 0 01-2.462-2.462v-3.537c0-.755-.612-1.367-1.367-1.367H45.072a1.367 1.367 0 000 2.734h14.536v2.17c0 .89.225 1.728.621 2.462H5.195a2.464 2.464 0 01-2.46-2.461v-2.17h30.6a1.367 1.367 0 000-2.735h-13.66a11.186 11.186 0 003.906-8.494c0-6.181-5.03-11.21-11.21-11.21-6.183 0-11.212 5.029-11.212 11.21 0 3.393 1.517 6.436 3.906 8.494H1.367C.612 59.9 0 60.512 0 61.267v3.538A5.201 5.201 0 005.195 70h59.609A5.202 5.202 0 0070 64.804V12.852a6.844 6.844 0 00-6.836-6.836zm-40.423 4.443c0 .754-.613 1.367-1.367 1.367a1.369 1.369 0 01-1.367-1.367V4.102c0-.754.613-1.368 1.367-1.368s1.367.614 1.367 1.368v6.357zm31.172 0c0 .754-.614 1.367-1.367 1.367a1.369 1.369 0 01-1.368-1.367V4.102a1.37 1.37 0 011.367-1.368 1.37 1.37 0 011.368 1.368v6.357zM3.893 51.406c0-4.674 3.803-8.476 8.477-8.476s8.477 3.802 8.477 8.476c0 4.674-3.803 8.477-8.477 8.477s-8.476-3.803-8.476-8.477z" fill="#fff"/><path d="M64.026 17.764a1.377 1.377 0 00-.966-.4c-.36 0-.712.146-.967.4-.254.254-.4.607-.4.966 0 .36.146.713.4.967.255.254.607.4.967.4s.712-.146.966-.4c.255-.254.401-.607.401-.966 0-.36-.146-.713-.4-.967zM40.83 60.3a1.375 1.375 0 00-.966-.4c-.36 0-.712.145-.966.4a1.38 1.38 0 00-.4.966c0 .361.145.712.4.968.254.255.607.4.966.4.36 0 .713-.145.967-.4.254-.256.4-.608.4-.968s-.146-.71-.4-.966zm-9.898-18.737a5.201 5.201 0 00-5.195 5.195 5.201 5.201 0 005.195 5.195 5.201 5.201 0 005.195-5.195 5.201 5.201 0 00-5.195-5.196zm0 7.656a2.464 2.464 0 01-2.46-2.461 2.464 2.464 0 012.46-2.461 2.464 2.464 0 012.461 2.46 2.464 2.464 0 01-2.46 2.462zm12.76-7.656a5.201 5.201 0 00-5.195 5.195 5.201 5.201 0 005.195 5.195 5.201 5.201 0 005.196-5.195 5.201 5.201 0 00-5.196-5.196zm0 7.656a2.464 2.464 0 01-2.46-2.461 2.464 2.464 0 012.46-2.461 2.464 2.464 0 012.461 2.46 2.464 2.464 0 01-2.46 2.462zm12.761-7.656a5.201 5.201 0 00-5.196 5.195 5.201 5.201 0 005.196 5.195 5.201 5.201 0 005.195-5.195 5.201 5.201 0 00-5.195-5.196zm0 7.656a2.464 2.464 0 01-2.461-2.461 2.464 2.464 0 012.46-2.461 2.464 2.464 0 012.462 2.46 2.464 2.464 0 01-2.461 2.462zM18.171 27.344a5.201 5.201 0 00-5.195 5.195 5.201 5.201 0 005.195 5.195 5.201 5.201 0 005.196-5.195 5.201 5.201 0 00-5.196-5.195zm0 7.656a2.464 2.464 0 01-2.46-2.46 2.464 2.464 0 012.46-2.462 2.464 2.464 0 012.461 2.461A2.464 2.464 0 0118.172 35zm25.521-7.656a5.201 5.201 0 00-5.195 5.195 5.201 5.201 0 005.195 5.195 5.201 5.201 0 005.196-5.195 5.201 5.201 0 00-5.196-5.195zm0 7.656a2.464 2.464 0 01-2.46-2.46 2.464 2.464 0 012.46-2.462 2.464 2.464 0 012.461 2.461A2.464 2.464 0 0143.693 35zm12.761-7.656a5.201 5.201 0 00-5.196 5.195 5.201 5.201 0 005.196 5.195 5.201 5.201 0 005.195-5.195 5.201 5.201 0 00-5.195-5.195zm0 7.656a2.464 2.464 0 01-2.461-2.46 2.464 2.464 0 012.46-2.462 2.464 2.464 0 012.462 2.461A2.464 2.464 0 0156.453 35zm-25.521-7.656a5.201 5.201 0 00-5.195 5.195 5.201 5.201 0 005.195 5.195 5.201 5.201 0 005.195-5.195 5.201 5.201 0 00-5.195-5.195zm0 7.656a2.464 2.464 0 01-2.46-2.46 2.464 2.464 0 012.46-2.462 2.464 2.464 0 012.461 2.461A2.464 2.464 0 0130.933 35z" fill="#fff"/><path d="M17.24 48.074a1.367 1.367 0 00-1.933 0l-4.452 4.453-1.522-1.522a1.367 1.367 0 00-1.934 1.934l2.489 2.488a1.368 1.368 0 001.933 0l5.42-5.42a1.366 1.366 0 000-1.933z" fill="#B20932"/></svg>