<svg width="70" height="70" fill="none" xmlns="http://www.w3.org/2000/svg"><path d="M61.253 61.797H37.189a1.367 1.367 0 000 2.734H59.65a4.109 4.109 0 01-3.867 2.735H12.301a6.805 6.805 0 001.233-2.735H25.91a1.367 1.367 0 000-2.734H12.305c-.755 0-1.367.612-1.367 1.367a4.106 4.106 0 01-4.102 4.102 4.106 4.106 0 01-4.102-4.102V2.734h49.767V19.62a1.367 1.367 0 002.734 0V1.367C55.235.612 54.623 0 53.868 0h-52.5C.611 0 0 .612 0 1.367v61.797A6.844 6.844 0 006.836 70h48.948a6.844 6.844 0 006.836-6.836c0-.755-.612-1.367-1.367-1.367z" fill="#fff"/><path d="M32.197 62.197a1.378 1.378 0 00-.967-.4c-.36 0-.712.146-.966.4a1.38 1.38 0 00-.4.966c0 .36.146.713.4.967s.607.4.966.4c.36 0 .713-.146.967-.4s.4-.607.4-.966c0-.36-.146-.711-.4-.967zm6.701-23.974H16.337a1.367 1.367 0 000 2.734h22.561a1.367 1.367 0 000-2.734zm0 6.562H16.337a1.367 1.367 0 000 2.735h22.561a1.367 1.367 0 000-2.735zm.966 6.963a1.375 1.375 0 00-.966-.401c-.36 0-.712.146-.967.4a1.38 1.38 0 00-.4.967c0 .361.146.712.4.967a1.37 1.37 0 002.334-.967c0-.36-.146-.712-.4-.966zm-7.039-.4H16.337a1.367 1.367 0 000 2.734h16.488a1.367 1.367 0 000-2.734zm5.829-29.473c.061-.081.124-.163.183-.245 1.928-2.662 2.4-5.149 1.331-7.001-1.07-1.853-3.458-2.686-6.729-2.348-.097.01-.196.023-.294.035-1.306-3.057-3.264-4.933-5.528-4.933-2.263 0-4.22 1.876-5.527 4.933-.098-.012-.197-.025-.294-.035-3.27-.339-5.66.495-6.73 2.348-1.13 1.958-.487 4.589 1.504 7.246-1.99 2.657-2.634 5.288-1.503 7.246.938 1.624 2.885 2.423 5.404 2.423.517 0 1.06-.036 1.622-.104 1.306 3.054 3.263 4.927 5.524 4.927 2.262 0 4.219-1.873 5.525-4.926a13.76 13.76 0 001.622.103c2.518 0 4.467-.799 5.404-2.423 1.07-1.853.597-4.339-1.33-7.001-.06-.082-.123-.164-.184-.245zm-21.22-5.879c.394-.681 1.477-1.055 2.983-1.055.25 0 .51.01.781.031-.232.901-.42 1.863-.556 2.876-.81.625-1.55 1.268-2.214 1.92-1.108-1.63-1.431-3.013-.993-3.772zm2.948 6.067c-.064-.063-.129-.125-.19-.188.061-.063.127-.125.19-.188v.376zm-2.947 5.69c-.438-.758-.115-2.142.993-3.772a24.632 24.632 0 002.214 1.921 24.76 24.76 0 00.557 2.878c-1.966.144-3.326-.267-3.764-1.026zM31.333 15.45l.065.255-.163-.097-.157-.088.255-.07zm-3.715-5.333c.877 0 1.917.976 2.776 2.758-.91.252-1.84.57-2.777.953a25.023 25.023 0 00-2.776-.953c.86-1.782 1.899-2.758 2.776-2.758zm-3.715 5.333l.254.07-.157.088-.163.095c.022-.084.043-.17.066-.253zm.001 12.857c-.023-.085-.045-.173-.067-.26l.162.095.166.092c-.087.024-.175.05-.26.072zm3.713 5.326c-.875 0-1.912-.972-2.77-2.746.897-.25 1.824-.569 2.77-.958.947.39 1.874.709 2.77.958-.857 1.774-1.894 2.746-2.77 2.746zm3.714-5.327c-.086-.022-.174-.048-.26-.072.054-.031.11-.06.164-.092l.163-.097c-.022.088-.044.176-.067.261zm.677-3.9a28.413 28.413 0 01-4.39 2.539 28.431 28.431 0 01-2.251-1.171 28.161 28.161 0 01-2.14-1.364 28.447 28.447 0 01-.111-2.535c0-.888.04-1.733.111-2.535a28.375 28.375 0 014.39-2.531 28.001 28.001 0 014.391 2.535 28.996 28.996 0 01.001 5.061zm5.792 3.348c-.438.758-1.798 1.17-3.764 1.026.234-.904.422-1.87.558-2.887a25 25 0 002.203-1.92c1.087 1.584 1.463 2.985 1.003 3.78zm-2.947-6.058l.181.179-.181.18v-.36zm1.944-1.92a25.001 25.001 0 00-2.203-1.919 24.64 24.64 0 00-.557-2.885c.27-.02.532-.03.78-.03 1.506 0 2.59.373 2.983 1.054.46.796.084 2.197-1.002 3.78z" fill="#fff"/><path d="M57.9 23.079c-6.671 0-12.1 5.427-12.1 12.1a12.08 12.08 0 004.718 9.578v12.656a1.367 1.367 0 002.327.973l5.056-4.988 5.055 4.988a1.367 1.367 0 002.327-.973V44.758C68.15 42.543 70 39.072 70 35.178c0-6.672-5.428-12.1-12.1-12.1zm4.649 31.064l-3.688-3.638a1.367 1.367 0 00-1.92 0l-3.689 3.638V46.35c1.432.598 3.002.929 4.648.929 1.647 0 3.217-.331 4.649-.93v7.795zm-4.649-9.6c-5.164 0-9.365-4.2-9.365-9.365 0-5.164 4.201-9.365 9.365-9.365 5.164 0 9.366 4.201 9.366 9.365 0 5.164-4.202 9.365-9.366 9.365z" fill="#B20932"/><path d="M64.978 33.456a1.367 1.367 0 00-1.103-.93l-3.282-.476-1.468-2.973a1.367 1.367 0 00-2.452 0l-1.466 2.974-3.28.478a1.367 1.367 0 00-.758 2.332l2.375 2.314-.56 3.268a1.367 1.367 0 001.984 1.44l2.934-1.543 2.935 1.542a1.367 1.367 0 001.984-1.442l-.561-3.268 2.373-2.314c.373-.364.506-.907.345-1.402zm-5.142 2.26c-.322.315-.47.767-.393 1.21l.214 1.247-1.12-.588a1.37 1.37 0 00-1.272 0l-1.118.589.213-1.246a1.368 1.368 0 00-.393-1.21l-.906-.882 1.251-.182a1.37 1.37 0 001.03-.749l.559-1.133.56 1.133c.198.404.583.683 1.029.748l1.25.181-.904.883z" fill="#B20932"/></svg>