<svg width="70" height="70" fill="none" xmlns="http://www.w3.org/2000/svg"><path d="M64.19 43.34a6.13 6.13 0 001.572-4.102 6.16 6.16 0 00-6.153-6.152H47.67c1.182-3.589 1.687-8.35 1.687-10.392v-2.05c0-4.522-3.681-8.203-8.204-8.203h-2.05c-.941 0-1.761.64-1.99 1.553l-1.117 4.47c-1.565 6.259-6.535 13.165-11.678 14.42a6.16 6.16 0 00-5.723-3.9H6.289c-1.132 0-2.05.92-2.05 2.051V67.95c0 1.132.918 2.051 2.05 2.051h12.305a6.159 6.159 0 005.553-3.507l7.047 2.349A22.507 22.507 0 0038.328 70h17.18a6.16 6.16 0 006.152-6.152c0-.8-.153-1.566-.432-2.267a6.164 6.164 0 004.534-5.937 6.13 6.13 0 00-1.571-4.101 6.13 6.13 0 001.57-4.102 6.13 6.13 0 00-1.57-4.101zM20.646 63.848c0 1.13-.92 2.05-2.051 2.05H8.34V33.086h10.254c1.13 0 2.05.92 2.05 2.05v28.712zM55.508 45.39h4.101c1.131 0 2.051.92 2.051 2.05 0 1.131-.92 2.051-2.05 2.051h-4.102a2.052 2.052 0 000 4.102h4.101c1.131 0 2.051.92 2.051 2.05 0 1.131-.92 2.051-2.05 2.051h-4.102a2.052 2.052 0 000 4.102c1.13 0 2.05.92 2.05 2.05 0 1.131-.92 2.051-2.05 2.051h-17.18c-1.988 0-3.953-.318-5.838-.947l-7.744-2.581V36.993c3.217-.61 6.366-2.648 9.208-5.983 2.776-3.256 5.026-7.574 6.02-11.55l.729-2.917h.45a4.107 4.107 0 014.1 4.102v2.049c0 2.754-.86 8.035-1.962 10.392H39.1a2.052 2.052 0 000 4.102h20.51c1.131 0 2.051.92 2.051 2.05s-.92 2.051-2.05 2.051h-4.102a2.052 2.052 0 000 4.102z" fill="#fff"/><path d="M14.492 61.797a2.05 2.05 0 100-4.102 2.05 2.05 0 000 4.102z" fill="#fff"/><path d="M43.203 0a2.05 2.05 0 00-2.05 2.05v4.24a2.05 2.05 0 004.1 0V2.05A2.05 2.05 0 0043.204 0zm-8.701 9.044l-2.9-2.9a2.05 2.05 0 00-2.9 2.9l2.9 2.9a2.05 2.05 0 002.9-2.9zm23.202-2.901c-.8-.8-2.099-.8-2.9 0l-2.9 2.9a2.05 2.05 0 102.9 2.9l2.9-2.9a2.05 2.05 0 000-2.9z" fill="#B20932"/></svg>