<svg width="20" height="20" fill="none" xmlns="http://www.w3.org/2000/svg"><path d="M13.641 18.663H6.36c-2.757 0-5-2.243-5-5V6.337c0-2.756 2.243-5 5-5h7.282c2.757 0 5 2.244 5 5v7.328c0 2.756-2.243 5-5 5zM6.36 3.391a2.948 2.948 0 00-2.945 2.945v7.328a2.948 2.948 0 002.945 2.945h7.282a2.948 2.948 0 002.945-2.945V6.336a2.948 2.948 0 00-2.945-2.945H6.36z" fill="#fff"/><path d="M10 14.286A4.291 4.291 0 015.713 10 4.291 4.291 0 0110 5.713 4.291 4.291 0 0114.286 10 4.291 4.291 0 0110 14.286zm0-6.568A2.285 2.285 0 007.717 10 2.285 2.285 0 0010 12.282 2.285 2.285 0 0012.282 10 2.285 2.285 0 0010 7.718zm4.387-1.348a.758.758 0 11.002-1.516.758.758 0 01-.002 1.515z" fill="#fff"/><path d="M13.641 19.023H6.36A5.365 5.365 0 011 13.663V6.337A5.365 5.365 0 016.359.977h7.282A5.365 5.365 0 0119 6.337v7.327a5.365 5.365 0 01-5.359 5.359zM6.36 1.696a4.645 4.645 0 00-4.64 4.64v7.328a4.645 4.645 0 004.64 4.64h7.282a4.645 4.645 0 004.64-4.64V6.336a4.645 4.645 0 00-4.64-4.64H6.36zm7.282 15.272H6.36a3.308 3.308 0 01-3.305-3.304V6.336A3.308 3.308 0 016.36 3.032h7.282a3.308 3.308 0 013.304 3.304v7.328a3.308 3.308 0 01-3.304 3.304zM6.36 3.751a2.588 2.588 0 00-2.586 2.585v7.328a2.588 2.588 0 002.586 2.585h7.282a2.588 2.588 0 002.586-2.585V6.336a2.588 2.588 0 00-2.586-2.585H6.36z" fill="#fff"/><path d="M10 14.646A4.651 4.651 0 015.354 10 4.651 4.651 0 0110 5.354 4.651 4.651 0 0114.646 10 4.651 4.651 0 0110 14.646zm0-8.573A3.931 3.931 0 006.073 10 3.931 3.931 0 0010 13.927 3.932 3.932 0 0013.927 10 3.932 3.932 0 0010 6.073zm0 6.569A2.645 2.645 0 017.358 10 2.645 2.645 0 0110 7.358 2.645 2.645 0 0112.642 10 2.645 2.645 0 0110 12.642zm0-4.565c-1.06 0-1.923.863-1.923 1.923S8.94 11.923 10 11.923s1.923-.863 1.923-1.923S11.06 8.077 10 8.077z" fill="#fff"/><path d="M14.387 6.729a1.117 1.117 0 010-2.233 1.118 1.118 0 010 2.233zm0-1.514a.398.398 0 10.001.796.398.398 0 000-.796zM9.425 18.016H6.046a.36.36 0 010-.719h3.379a.36.36 0 010 .72zm1.366 0h-.216a.36.36 0 010-.719h.216a.36.36 0 010 .72z" fill="#fff"/></svg>