<svg width="170" height="40" fill="none" xmlns="http://www.w3.org/2000/svg"><path d="M45.433 8.147l-.675.707v2.09a.51.51 0 01-.154.382.54.54 0 01-.924-.381V4.353a.604.604 0 01.153-.383.6.6 0 01.382-.152.61.61 0 01.386.152.605.605 0 01.154.393v2.946l3.029-3.229a.513.513 0 01.35-.206.499.499 0 01.405.11.515.515 0 01.208.348.499.499 0 01-.11.403l-2.45 2.629 2.482 3.243a.5.5 0 01.135.393.558.558 0 01-.212.369.541.541 0 01-.754-.077l-2.405-3.145zm6.713.382l-2.22 2.721a.54.54 0 01-.42.207.528.528 0 01-.328-.12.517.517 0 01-.212-.348.492.492 0 01.11-.403l2.382-2.94-2.357-2.917a.501.501 0 01-.11-.404.475.475 0 01.203-.355.486.486 0 01.393-.11.571.571 0 01.361.208l2.198 2.7 2.153-2.704a.564.564 0 01.57-.196.49.49 0 01.185.098.482.482 0 01.207.359.495.495 0 01-.11.404l-2.316 2.917-.69.883zm6.581-4.683a2.116 2.116 0 011.509.662 2.128 2.128 0 01.032 2.973c-.394.414-.927.67-1.498.719-.006.006-.63.01-1.87.01v2.69a.495.495 0 01-.163.381.526.526 0 01-.763.004.558.558 0 01-.166-.377V4.39a.538.538 0 01.339-.508.52.52 0 01.208-.037h2.372zm-.088 3.277a1.084 1.084 0 00.798-.328c.208-.208.328-.488.335-.781a1.136 1.136 0 00-.339-.774 1.08 1.08 0 00-.798-.304h-1.734v2.187h1.738zm9.413-.62a.542.542 0 01-.405.045.458.458 0 01-.31-.241c-.545-.907-1.329-1.36-2.35-1.36a2.768 2.768 0 00-1.93.802 2.746 2.746 0 00-.814 1.92 2.548 2.548 0 00.81 1.904 2.693 2.693 0 001.935.774 2.66 2.66 0 001.282-.323c.402-.22.744-.534.996-.915a.441.441 0 01.341-.244.407.407 0 01.383.11.496.496 0 01.27.315.413.413 0 01-.077.404c-.343.54-.816.986-1.377 1.297a3.66 3.66 0 01-1.826.468 3.754 3.754 0 01-2.711-1.111 3.601 3.601 0 01-1.145-2.68 3.66 3.66 0 011.148-2.721 3.853 3.853 0 014.613-.61 3.465 3.465 0 011.364 1.382.583.583 0 01.077.468.492.492 0 01-.274.316zm1.564 4.944a.52.52 0 01-.388-.153.54.54 0 01-.163-.392v-6.51a.474.474 0 01.163-.381.505.505 0 01.384-.165.53.53 0 01.382.165.476.476 0 01.164.38v2.69c1.24 0 1.863.004 1.87.011a2.35 2.35 0 011.497.719c.385.393.597.921.59 1.47a2.191 2.191 0 01-.629 1.51 2.21 2.21 0 01-1.502.657l-2.368-.001zm.54-3.278v2.188h1.739a1.085 1.085 0 00.798-.304c.209-.205.33-.482.34-.773a1.148 1.148 0 00-.34-.785 1.08 1.08 0 00-.798-.326h-1.739zm4.297-3.82a.537.537 0 01.54-.539.6.6 0 01.395.16.6.6 0 01.153.382v6.572a.517.517 0 01-.153.38.527.527 0 01-.382.164.561.561 0 01-.54-.538l-.013-6.582zm9.747-.524a.597.597 0 01.382.153.6.6 0 01.154.396.592.592 0 01-.154.38.596.596 0 01-.382.152h-1.662v6.018a.511.511 0 01-.154.38.523.523 0 01-.382.164.562.562 0 01-.54-.538V4.902h-1.658a.519.519 0 01-.382-.152.52.52 0 01-.164-.376.536.536 0 01.164-.392.518.518 0 01.382-.153l4.396-.004zm3.903 4.704l-2.22 2.721a.54.54 0 01-.425.207.522.522 0 01-.329-.12.51.51 0 01-.208-.348.5.5 0 01.11-.403l2.383-2.94-2.362-2.917a.501.501 0 01-.109-.404.538.538 0 01.962-.26l2.198 2.699 2.154-2.7a.564.564 0 01.36-.207.542.542 0 01.602.468.499.499 0 01-.11.404l-2.317 2.917-.69.883zm6.581-4.683a2.116 2.116 0 011.509.662 2.064 2.064 0 01.623 1.503 2.057 2.057 0 01-.59 1.47 2.349 2.349 0 01-1.498.719c-.008.006-.63.01-1.87.01v2.69a.497.497 0 01-.164.381.524.524 0 01-.382.165.565.565 0 01-.54-.538V4.39a.537.537 0 01.164-.39.516.516 0 01.383-.154h2.365zm-.087 3.277a1.085 1.085 0 00.797-.328c.21-.208.332-.489.34-.784a1.129 1.129 0 00-.34-.774 1.082 1.082 0 00-.797-.304H92.86v2.19h1.739zm6.917 3.234a.598.598 0 01.382.154.544.544 0 01.123.6.495.495 0 01-.123.172.533.533 0 01-.382.164h-3.813a.564.564 0 01-.54-.538V4.39a.534.534 0 01.165-.39.516.516 0 01.382-.154h3.806a.598.598 0 01.382.154.543.543 0 01.163.391.49.49 0 01-.159.386.522.522 0 01-.386.159h-3.27v2.187h2.493a.596.596 0 01.382.154.53.53 0 01.165.391.497.497 0 01-.165.38.52.52 0 01-.382.165h-2.488v2.144h3.265zm6.77 1.101h-5.014a.505.505 0 01-.382-.165.52.52 0 01-.164-.38V4.402a.483.483 0 01.164-.38.499.499 0 01.382-.165.529.529 0 01.383.164.477.477 0 01.157.38v5.967h3.377V4.402a.483.483 0 01.164-.38.501.501 0 01.383-.165.524.524 0 01.383.164.476.476 0 01.163.38v5.967h.558a.607.607 0 01.393.153c.095.105.15.24.154.381v1.785a.52.52 0 01-.154.38.559.559 0 01-.606.123.538.538 0 01-.18-.122.497.497 0 01-.165-.38l.004-1.23zm3.411-3.311l-.675.707v2.09a.52.52 0 01-.154.382.538.538 0 01-.393.164.53.53 0 01-.383-.164.52.52 0 01-.154-.38V4.352a.61.61 0 01.153-.383.6.6 0 01.382-.152.616.616 0 01.393.152.602.602 0 01.154.393v2.946l3.028-3.229a.511.511 0 01.349-.206.503.503 0 01.406.11.512.512 0 01.208.348.498.498 0 01-.11.403l-2.443 2.629 2.481 3.243a.503.503 0 01.135.393.564.564 0 01-.217.369.543.543 0 01-.57.07.514.514 0 01-.184-.147l-2.406-3.145zm7.424 3.3a3.615 3.615 0 01-2.679-1.133 3.746 3.746 0 01-1.105-2.7 3.687 3.687 0 011.105-2.657 3.775 3.775 0 012.678-1.11 3.788 3.788 0 012.678 1.11 3.67 3.67 0 011.105 2.657 3.718 3.718 0 01-1.105 2.7 3.589 3.589 0 01-2.677 1.133zm0-6.545a2.736 2.736 0 00-1.925.795 2.708 2.708 0 00-.798 1.917 2.673 2.673 0 00.798 1.971 2.701 2.701 0 001.924.802 2.71 2.71 0 001.925-.802 2.762 2.762 0 00.81-1.97 2.608 2.608 0 00-.81-1.918 2.623 2.623 0 00-1.924-.795zm5.476.045v5.966a.534.534 0 01-.163.391.598.598 0 01-.382.154.517.517 0 01-.383-.154.543.543 0 01-.163-.391V4.402a.483.483 0 01.163-.38.51.51 0 01.384-.165h3.804a.524.524 0 01.382.164.476.476 0 01.158.38.538.538 0 01-.165.394.597.597 0 01-.375.152h-3.26zm7.861 6.5a3.615 3.615 0 01-2.679-1.133 3.734 3.734 0 01-1.103-2.7 3.668 3.668 0 011.103-2.656 3.775 3.775 0 012.679-1.112 3.788 3.788 0 012.679 1.112 3.698 3.698 0 011.105 2.656 3.736 3.736 0 01-1.105 2.7 3.603 3.603 0 01-2.679 1.133zm0-6.545a2.73 2.73 0 00-1.924.796 2.711 2.711 0 00-.798 1.916 2.672 2.672 0 00.798 1.97 2.705 2.705 0 001.925.803 2.714 2.714 0 001.924-.802 2.746 2.746 0 00.81-1.97 2.618 2.618 0 00-.81-1.917 2.622 2.622 0 00-1.925-.796zM144.68 3.87a.54.54 0 01.393.162.517.517 0 01.163.38v6.512a.495.495 0 01-.163.38.554.554 0 01-.889-.172.48.48 0 01-.04-.208v-2.69h-1.116l-1.814 2.959a.548.548 0 01-1.007-.156.508.508 0 01-.011-.21.506.506 0 01.077-.194l1.531-2.483a2.49 2.49 0 01-1.17-.828 2.06 2.06 0 01-.448-1.295 2.114 2.114 0 01.675-1.535 2.096 2.096 0 011.498-.62l2.321-.003zm-.54 3.276V4.957h-1.739a1.085 1.085 0 00-.798.306c-.209.204-.33.48-.339.772.007.295.129.576.339.784a1.071 1.071 0 00.798.327h1.739zm2.897 2.264a1.073 1.073 0 00.447.73c.255.189.568.284.886.268.322.01.635-.103.875-.316a.984.984 0 00.349-.762 1.093 1.093 0 00-.349-.794 1.179 1.179 0 00-.875-.348.682.682 0 01-.448-.154.498.498 0 01-.164-.38.528.528 0 01.164-.391.682.682 0 01.448-.154 1.191 1.191 0 001.134-.706c.06-.138.09-.288.09-.44a.982.982 0 00-.349-.762 1.26 1.26 0 00-.875-.316 1.594 1.594 0 00-.863.262 1.02 1.02 0 00-.47.599.675.675 0 01-.241.36.47.47 0 01-.437.087c-.371-.067-.557-.27-.558-.611a2.039 2.039 0 01.929-1.274 2.87 2.87 0 011.644-.472 2.639 2.639 0 011.728.61 1.917 1.917 0 01.743 1.525 2 2 0 01-.874 1.687 2.012 2.012 0 01.874 1.676c0 .575-.248 1.075-.743 1.502a2.559 2.559 0 01-1.728.643 2.83 2.83 0 01-1.717-.538 2.158 2.158 0 01-.852-1.361c0-.34.186-.548.558-.62a.8.8 0 01.459.14.41.41 0 01.215.31zm4.998 2.037a.517.517 0 01-.382-.153.53.53 0 01-.164-.392v-6.51a.483.483 0 01.164-.381.498.498 0 01.382-.165.529.529 0 01.384.165.49.49 0 01.163.38v2.69c1.239 0 1.862.004 1.87.011a2.35 2.35 0 011.5.717c.385.393.598.922.591 1.47a2.195 2.195 0 01-.63 1.51 2.21 2.21 0 01-1.502.658h-2.376zm.54-3.278v2.188h1.739a1.089 1.089 0 00.798-.304c.209-.205.33-.482.338-.773a1.143 1.143 0 00-.338-.785 1.071 1.071 0 00-.798-.326h-1.739zm4.297-3.82a.54.54 0 01.541-.538.603.603 0 01.383.151c.095.106.149.24.153.382v6.58a.52.52 0 01-.153.38.519.519 0 01-.383.164.562.562 0 01-.541-.538V4.348zm3.572 3.798l-.675.708v2.09a.52.52 0 01-.153.38.544.544 0 01-.892-.174.502.502 0 01-.037-.206V4.353a.606.606 0 01.152-.392.604.604 0 01.384-.152.613.613 0 01.39.161c.096.109.15.248.153.393v2.946l3.029-3.229a.511.511 0 01.35-.205.496.496 0 01.405.108.508.508 0 01.208.349.498.498 0 01-.11.403l-2.449 2.625 2.483 3.243a.506.506 0 01.135.393.567.567 0 01-.208.37.54.54 0 01-.755-.077l-2.41-3.142zm7.719 1.797h-2.668l-.46 1.11c-.051.261-.225.393-.524.393h-.121a.604.604 0 01-.338-.316c-.073-.08-.092-.214-.055-.404l2.339-6.488a.512.512 0 01.541-.393.492.492 0 01.513.393l2.219 6.488a.541.541 0 010 .404.611.611 0 01-.328.316.667.667 0 01-.405-.055.712.712 0 01-.318-.338l-.395-1.11zm-.323-1.1l-.962-2.787-.985 2.787h1.947z" fill="#fff"/><path d="M53.588 15.484c.81-1.822 3.562-1.749 4.332.07 2.413 5.097 4.24 10.458 6.544 15.604 1.438.287 3.943.372 3.764 2.456.27 1.518-1.229 2.825-2.701 2.595-6.484.038-12.976.108-19.465.008-1.89.21-3.22-1.775-2.62-3.48.691-1.416 2.403-1.222 3.686-1.572 2.282-5.17 4.049-10.568 6.46-15.681zm-1.11 15.92c2.201-.009 4.403-.009 6.604 0a1717.659 1717.659 0 00-3.22-8.428c-1.301 2.733-2.336 5.585-3.384 8.427zm17.29-15.235c.046-1.238 1.095-2.19 2.256-2.142a2.212 2.212 0 011.418.631c.38.375.61.873.65 1.405l-.036 12.241a601.57 601.57 0 0010.842-12.97 2.7 2.7 0 01.897-.782c.717-.386 1.75-.51 2.397-.065.779.538.83 1.697.846 2.22.075 2.393.09 8.987-.024 17.856-.384 1.19-1.533 1.938-2.702 1.808a2.571 2.571 0 01-1.364-.614 2.553 2.553 0 01-.788-1.269l-.144-10.647-6.008 6.397a215.993 215.993 0 01-4.214 4.65c-.262.282-.992 1.034-1.982 1.21-.23.042-.972.174-1.518-.24a1.53 1.53 0 01-.16-.128c-.43-.404-.46-.989-.474-1.227-.039-.712-.01-8.148.108-18.334zm26.972.484c.699-1.804 2.52-3.477 4.592-2.78 2.297 1.014 2.837 3.687 3.726 5.784 1.595 4.687 3.782 9.188 5.033 13.99.505 1.892-1.756 3.2-3.377 2.51-1.494-.952-1.681-2.85-2.311-4.353-2.716-.008-5.423 0-8.13-.022-.505 1.247-.886 2.572-1.62 3.71-1.035 1.278-3.354 1.123-4.1-.38-.242-2.17.792-4.183 1.5-6.166 1.625-4.08 2.976-8.256 4.686-12.293zm.831 10.59c1.813 0 3.628-.003 5.446-.008-.946-2.71-1.781-5.454-2.621-8.197-1.02 2.706-1.898 5.455-2.825 8.205zm20.054-9.607c.355-1.049 1.232-3.64 2.814-3.843a1.84 1.84 0 01.826.097c1.792.578 2.518 3.058 2.648 3.523l6.456 16.222a2.403 2.403 0 01-1.502 2.676 2.418 2.418 0 01-2.917-.98l-5.025-12.376-4.323 11.544c-.344 1.12-1.215 1.926-2.235 2.046-.193.023-1.39.134-2.041-.774-.591-.828-.242-1.813-.207-1.91 2.434-7.308 4.389-12.956 5.506-16.225zm20.485-3.019c3.974-1.435 8.937-.977 12.058 2.067 3.694 3.65 3.959 9.686 2.069 14.26-3.242 7.491-15.535 7.677-19.199.473-2.863-5.677-1.471-14.352 5.072-16.8zm1.602 4.554c-3.189 2.317-3.477 7.13-1.728 10.413 1.65 3.184 6.738 3.44 8.73.488 1.843-2.743 1.843-6.578.155-9.398-1.401-2.378-4.901-2.96-7.157-1.503zm17.075-4.478l11.334-.134c1.136.333 1.897 1.345 1.879 2.383-.023 1.285-1.216 2.44-2.724 2.39l-7.486.013-.093 15.066a2.42 2.42 0 01-.794 1.532 2.437 2.437 0 01-3.234.01 2.418 2.418 0 01-.803-1.527l-.124-15.5c-.035-.19-.422-2.528 1.06-3.719.291-.235.626-.41.985-.514z" fill="#B20932"/><path d="M25.977 14.98c3.876 0 7.019-3.13 7.019-6.99 0-3.86-3.143-6.99-7.019-6.99-3.877 0-7.019 3.13-7.019 6.99 0 3.86 3.143 6.99 7.019 6.99z" stroke="#fff" stroke-width=".83" stroke-miterlimit="10"/><path d="M29.443 10.118a5.292 5.292 0 01-6.754.121" stroke="#fff" stroke-width=".83" stroke-miterlimit="10" stroke-linecap="round"/><path d="M23.67 6.409a.283.283 0 01-.284.282.283.283 0 01-.285-.282c0-.154.126-.282.285-.282.16 0 .285.128.285.282z" fill="url(#paint0_radial_501:791)" stroke="#fff"/><path d="M29.185 6.409a.283.283 0 01-.285.282.283.283 0 01-.285-.282c0-.154.126-.282.285-.282.16 0 .285.128.285.282z" fill="url(#paint1_radial_501:791)" stroke="#fff"/><path d="M10.692 18.313c3.877 0 7.02-3.13 7.02-6.99 0-3.86-3.143-6.99-7.02-6.99-3.876 0-7.019 3.13-7.019 6.99 0 3.86 3.143 6.99 7.02 6.99z" stroke="#fff" stroke-width=".83" stroke-miterlimit="10"/><path d="M14.16 13.453a5.296 5.296 0 01-6.754.12" stroke="#fff" stroke-width=".83" stroke-miterlimit="10" stroke-linecap="round"/><path d="M8.386 9.743a.283.283 0 01-.285.281.283.283 0 01-.285-.281c0-.154.126-.282.285-.282.16 0 .285.128.285.282z" fill="url(#paint2_radial_501:791)" stroke="#fff"/><path d="M13.9 9.743a.283.283 0 01-.285.281.283.283 0 01-.284-.281c0-.154.125-.282.284-.282.16 0 .285.128.285.282z" fill="url(#paint3_radial_501:791)" stroke="#fff"/><path d="M35.67 27.23c0-5.54-4.749-10.257-5.562-11.324-1.08 1.336-3.176 1.614-4.131 1.666-.955-.055-3.05-.33-4.13-1.666-.81 1.067-5.562 5.785-5.562 11.324 0 4.027 2.381 8.407 9.195 8.794v.031c.17 0 .334 0 .497-.01.163-.009.328.01.497.01v-.03c6.822-.388 9.197-4.768 9.197-8.795z" fill="#fff"/><path d="M35.67 27.279c0-1.824-.317-2.97-1.037-4.516-1.467-3.146-16.075-2.845-17.542.075-.832 1.655-.81 2.437-.81 4.44 0 4.026 2.381 8.405 9.195 8.793v.031c.17 0 .334 0 .497-.009.164-.01.328.01.497.01v-.032c6.826-.387 9.2-4.766 9.2-8.792z" fill="#0252FF"/><path d="M16.336 28.308c1.004 3.265 2.908 7.41 9.144 7.765v.03c.17 0 .333 0 .497-.009.163-.01.328.01.497.01v-.031c6.233-.356 9.092-5.056 9.144-7.17-2.089-2.583-14.599-2.583-19.282-.595z" fill="#B20932"/><path opacity=".33" d="M26.06 33.686c-4.146-.414-7.21-3.71-6.841-7.36-.776-.134-1.101.473-1.506.604-.37 3.65 2.701 6.946 6.842 7.36a8.215 8.215 0 004.657-.88 8.4 8.4 0 01-3.151.276z" fill="#fff"/><path d="M35.67 27.23c0-5.54-4.749-10.257-5.562-11.324-1.08 1.336-3.176 1.614-4.131 1.666-.955-.055-3.05-.33-4.13-1.666-.81 1.067-5.562 5.785-5.562 11.324 0 4.027 2.381 8.407 9.195 8.794v.031c.17 0 .334 0 .497-.01.163-.009.328.01.497.01v-.03c6.822-.388 9.197-4.768 9.197-8.795z" stroke="#fff" stroke-width=".83" stroke-linejoin="round"/><path d="M20.386 30.177c0-5.54-4.75-10.258-5.563-11.325-1.08 1.336-3.176 1.615-4.13 1.665-.956-.054-3.05-.329-4.13-1.665C5.753 19.92 1 24.637 1 30.177c0 4.025 2.382 8.405 9.197 8.792V39c.168 0 .332 0 .495-.01.164-.009.329.01.497.01v-.03c6.815-.388 9.197-4.768 9.197-8.793z" fill="#B20932" stroke="#fff" stroke-width=".83" stroke-linejoin="round"/><path fill-rule="evenodd" clip-rule="evenodd" d="M11 28.314l.622.825.98-.333-.597.845.623.826-.991-.304-.597.844-.015-1.033-.992-.304.982-.333L11 28.313z" fill="#fff"/><path d="M10.114 33.478a3.766 3.766 0 01-2.657-1.096 3.734 3.734 0 010-5.293 3.766 3.766 0 013.858-.897 4.412 4.412 0 00-4.72-.01 4.386 4.386 0 00-1.627 1.833 4.364 4.364 0 00.592 4.663 4.415 4.415 0 006.603.192 3.76 3.76 0 01-2.05.608z" fill="#fff"/><defs><radialGradient id="paint0_radial_501:791" cx="0" cy="0" r="1" gradientUnits="userSpaceOnUse" gradientTransform="matrix(1.75766 0 0 2.62554 24.066 5.559)"><stop stop-color="#352424"/><stop offset="1"/></radialGradient><radialGradient id="paint1_radial_501:791" cx="0" cy="0" r="1" gradientUnits="userSpaceOnUse" gradientTransform="matrix(1.75766 0 0 2.62554 29.58 5.559)"><stop stop-color="#352424"/><stop offset="1"/></radialGradient><radialGradient id="paint2_radial_501:791" cx="0" cy="0" r="1" gradientUnits="userSpaceOnUse" gradientTransform="matrix(1.75766 0 0 2.62554 8.782 8.892)"><stop stop-color="#352424"/><stop offset="1"/></radialGradient><radialGradient id="paint3_radial_501:791" cx="0" cy="0" r="1" gradientUnits="userSpaceOnUse" gradientTransform="matrix(1.75766 0 0 2.62554 14.296 8.892)"><stop stop-color="#352424"/><stop offset="1"/></radialGradient></defs></svg>