<svg width="770" height="270" fill="none" xmlns="http://www.w3.org/2000/svg"><path d="M464.566 7.354c.987 3.292.987 6.365-.219 9.439-.768 2.085-2.084 3.841-3.619 5.597-5.593 6.147-12.503 10.208-20.399 12.732-12.064 4.06-24.566 5.159-37.288 4.06-14.806-1.316-29.173-4.828-43.43-8.89a6951.748 6951.748 0 00-41.346-11.524c-5.593-1.756-11.515-2.744-18.425-4.39-7.128-1.976-14.257-2.524-21.495-.22-6.361 1.976-12.283 4.83-17.876 8.232-8.445 5.159-16.122 11.305-23.47 18.11-26.321 24.037-47.597 54.22-67.667 83.634 11.186 0 22.483-.549 35.314-2.085 9.212-1.208 18.205-2.744 27.089-5.378 4.825-1.317 9.212-3.512 13.051-6.586 1.754-1.317 3.509-2.744 4.277-4.829.438-.768 1.206-.549 1.754-.439 2.523.768 2.742 3.073.439 5.817-2.522 2.744-5.374 4.829-8.664 6.586-5.045 2.743-10.528 4.28-16.121 5.597a164.146 164.146 0 01-31.147 4.61c-6.361.439-12.722.549-18.973.768-2.852.22-5.813.439-8.664.439-1.316 0-2.084.549-2.852 1.756-7.457 10.756-15.024 21.512-22.701 32.159-12.284 16.573-25.554 32.268-40.359 46.756-12.064 11.744-25.005 22.5-39.592 31.171-7.457 4.39-15.134 8.231-23.579 10.756-15.025 4.39-32.243-.33-37.069-17.342-.219-.988-.438-1.975-.438-2.853 0-2.744 1.535-3.622 4.277-2.854-.768 1.317-.768 4.061 0 6.366 7.348 17.451 19.74 17.89 36.74 11.195 8.225-3.512 15.902-8.122 23.47-13.061 11.734-7.902 22.262-17.122 32.242-26.89 14.806-14.598 28.076-30.512 40.359-47.305 6.142-8.451 12.064-17.122 18.096-25.573.439-.549.768-1.208 1.206-1.756h-.767c-5.593.987-10.529 3.292-14.586 7.463-.439.439-.768.988-1.207 1.317-.768.988-.548 1.756-.439 2.744-.438.549-2.083 1.317-2.741.549-.549-.769-.987-1.976-.768-2.854.219-1.207.768-2.305 1.535-3.293 2.852-3.841 6.69-6.365 11.187-7.902 2.851-.988 5.922-1.537 8.993-2.085 1.316-.439 2.303-.988 3.071-2.086 19.631-28.646 39.81-58.06 65.912-83.085 7.458-7.134 15.354-13.83 24.018-19.646 8.883-6.147 15.134-7.464 24.347-11.744-26.65-5.927-58.016-6.586-87.408-5.598-16.889.549-33.669 2.744-50.12 6.695-25.553 6.146-49.57 16.134-71.286 31.17C50.23 54.22 35.204 68.269 23.141 85.172c-6.58 9.22-12.064 18.988-15.574 29.744-4.277 13.28-5.045 26.67-1.316 40.17 3.62 13.281 11.954 23.049 24.347 28.976 5.813 2.744 11.954 3.073 18.096 2.744 8.225-.439 16.121-2.744 23.58-6.366 19.96-9.988 36.739-23.817 48.803-42.915 3.071-4.829 5.812-9.768 7.457-15.365 3.29-9.659 2.852-18.988-1.754-28.208-1.207-2.085-2.523-4.06-3.839-5.927-1.535-1.975-3.29-3.621-4.825-5.378-.987-1.207-.987-1.207-1.207-3.512 1.207.549 2.084.769 2.852 1.317 7.348 6.366 12.283 14.049 13.818 23.817 1.207 7.683.22 15.037-2.522 22.061-2.852 7.464-7.129 14.378-11.954 20.744-12.832 16.903-29.173 29.634-48.585 38.086-10.418 4.609-21.276 5.926-32.682 4.28-9.76-1.537-17.657-6.366-24.346-13.5-6.91-7.354-10.748-16.134-12.503-25.902-3.07-17.122-.439-33.476 7.129-49.061 6.141-12.732 14.257-23.817 23.579-34.025 18.973-20.745 41.675-36.33 67.447-47.525 19.193-8.232 39.153-13.83 59.881-16.683C174.925.549 190.608 0 206.401 0c12.502 0 25.005.549 37.507 1.756 14.586 1.317 29.173 3.293 43.649 5.817 23.031 4.061 45.733 10.207 68.216 16.903 9.98 3.073 20.179 5.817 30.488 7.682 8.993 1.757 18.096 2.854 27.308 2.525 9.432-.44 18.644-1.976 27.418-5.378 6.142-2.305 11.515-5.817 15.902-10.537 1.536-1.536 2.742-3.512 3.839-5.378.987-1.756 1.206-3.622.548-5.597-.219-.55-.219-1.208-.329-1.756 1.316-.988 2.303.548 3.51 0l.109 1.317zm-83.898 110.524v.549c-.548.219-1.206.549-1.755.768-4.825 1.207-9.212 3.293-13.599 5.159-13.819 6.146-27.637 12.073-41.456 18.219-8.115 3.622-15.902 7.464-24.018 11.195-2.303.988-4.606 1.976-6.909 2.854-.768.439-1.755.549-2.742.768-2.851.549-4.606-1.536-3.619-4.39.439-.988.987-1.976 1.536-2.854 2.083-3.512 4.386-6.695 6.58-10.207 1.535-2.524 3.071-5.049 4.277-7.683.768-1.756 1.316-3.622 1.535-5.597.439-2.854-.987-5.049-3.838-5.927-1.206-.439-2.522-.549-3.619-.549-2.852 0-5.813.219-8.664.219-3.29 0-6.58.439-9.651-.439-1.316-.439-2.523-.439-3.839 0-3.07.988-2.741.439-3.29-2.085.768-.439 1.755-.768 2.742-1.207-.768-3.622.768-6.695 2.522-9.769 3.839-6.585 8.993-11.743 15.135-15.914 1.316-.769 2.742-1.317 4.058-1.976 2.303-.988 4.606-.439 6.909.44 1.206.438 1.755 1.536 1.755 3.072-.22 2.305-.768 4.39-2.084 6.147-1.974 2.744-3.838 5.378-6.142 7.902-4.277 4.39-9.212 7.903-14.586 10.976-.548.219-.987.549-1.535.988v.439c1.206 0 2.522.219 3.838.219 3.29 0 6.581-.219 9.761-.219 2.084 0 4.387 0 6.58.439 4.606.987 7.129 4.609 6.581 9.439-.439 2.744-1.207 5.158-2.304 7.683-1.206 2.304-2.522 4.609-3.838 6.914a207.045 207.045 0 01-5.593 9.22c-.439.549-.549 1.207-.987 1.756v.549c.767-.22 1.535-.439 2.303-.769 5.045-2.305 9.98-4.609 15.025-6.695a5868.726 5868.726 0 0138.604-16.683c6.909-2.853 13.818-5.927 20.508-9 3.291-1.536 6.69-2.744 10.2-3.512.548-.219 1.206-.439 1.755-.439.548 0 1.206.439 1.754.549l.11-.549zm-106.271-2.305c3.619-2.524 7.348-4.829 10.748-7.463 4.057-3.073 7.457-6.915 10.418-11.195.768-1.208 1.316-2.525 1.755-3.842.439-.988 0-1.317-1.206-1.317-.768 0-1.536 0-2.303.22-1.207.439-2.304.987-3.51 1.536-6.142 3.842-11.296 8.89-15.135 15.037-.987 1.536-1.535 3.073-2.083 4.61-.439.768-.439 1.536-.549 2.743.768-.439 1.207-.548 1.536-.768l.329.439zm174.267 4.171c.439 0 .768.549 1.206.768-.219.439-.438.769-.767.988-.22.22-.549.22-.987.22-17.328 5.378-34.437 9.219-51.436 15.146-4.826 1.756-9.761 3.073-14.806 3.622-1.974.219-3.838 0-5.812-.549-4.058-.988-5.813-4.829-5.593-8.671.219-4.061 3.838-9.768 6.141-12.841.548-.768 1.316-.768 2.084-.549.439.22.987.439 1.535.549 0 .988-.219 1.536-.767 2.305-1.974 2.305-4.826 7.463-5.594 10.427-.987 3.622 1.316 6.695 5.155 6.914 1.974 0 4.058-.219 5.922-.549 5.155-1.317 10.419-2.743 15.354-4.28 15.354-4.829 30.489-7.903 45.952-12.732.768-.219 1.536-.439 2.303-.439v-.329h.11zm-64.596-14.378c-1.207-.439-.439-2.525.438-3.512 1.755-2.086 6.361-9.22 6.142-2.744-2.742 1.975-5.264 6.475-6.58 6.256zm177.886 13.61c0 .219-.439.548-.548.768-.22.219-.549.439-.987.549-21.934 15.914-43.759 31.939-65.693 47.853-9.98 7.354-19.96 14.378-30.489 20.744-3.509 1.976-6.909 3.622-10.418 5.378-1.536.769-3.291 1.208-5.045 1.537-1.755.329-2.523-.22-3.071-1.756a5.221 5.221 0 010-4.061c.987-2.305 1.974-4.829 3.29-6.915 5.374-9.219 11.515-17.89 18.096-26.341 14.257-18.439 28.185-36.878 42.662-55.208 7.128-9 14.586-17.67 21.934-26.56.548-.769 1.206-1.537 1.755-2.305v-.55c-.549.44-1.207.77-1.755 1.208-9.651 7.903-19.192 15.805-28.844 23.598-10.747 8.89-21.714 17.67-32.681 26.561l-.549.548c-3.071 3.513-7.128 5.598-10.528 8.452-3.51 2.853-7.129 5.597-10.748 8.231-3.071 2.305-6.361 4.391-10.199 5.817-1.975.769-4.278 0-4.387-2.304v-.549c-1.316-2.305-.549-4.39.548-6.586 3.839-7.353 8.993-13.609 15.573-18.658 4.387-3.512 9.213-3.842 14.367-2.086 1.207.44 2.084 1.208 3.29 1.976.439-.439.987-.768 1.536-1.207 19.96-15.805 39.92-31.5 59.88-47.305l9.213-6.915c1.754-1.317 3.509-2.305 5.812-.988.439.988 0 1.976-.768 2.854-2.851 3.622-5.593 7.354-8.664 10.756-16.121 18.878-31.256 38.415-46.061 58.281-8.116 10.756-16.561 21.292-24.567 32.268-4.058 5.598-7.677 11.524-11.515 17.341-1.316 2.086-2.303 4.391-3.29 6.586-.329.768-.329 1.756-.549 2.524l.549.549c.767-.22 1.754-.439 2.522-.768 2.852-1.317 5.922-2.744 8.883-4.281 10.2-5.817 19.741-12.512 29.173-19.427 18.096-13.061 36.082-26.341 54.177-39.402 5.155-3.622 10.419-7.354 15.574-10.976.548-.439 1.206-.987 1.974-.548.438.219.767.548.987.987l-.439.33zM440 141.476c8.883-6.147 16.67-12.513 24.786-18.988-2.523-1.756-4.607-2.086-7.129-.988-1.535.768-2.851 1.756-4.277 2.744-5.374 4.39-9.651 9.768-13.051 15.805-.219.219-.219.549-.439 1.317v.11h.11zm190.169-20.744c-.219.439-.329.768-.548 1.207-.219.22-.548.22-.768.22-8.115 3.292-16.121 6.585-24.237 9.658-5.922 2.305-12.064 4.061-18.425 5.049-1.974.439-3.838.549-5.812.549-1.207 0-2.303-.439-3.29-.769-1.207-.439-1.755-1.317-2.303-2.524-1.316-2.744-.439-5.049.987-7.354.548-1.207 1.316-2.305 1.974-3.622-.439.22-.768.439-1.207.549-2.851 2.525-5.812 5.049-8.664 7.464l-11.515 9.219c-1.755 1.317-3.619 2.305-5.922 2.744-.549 0-1.316 0-1.974-.22-.549-.219-1.316-.548-1.536-1.207-.767-1.756-1.535-3.622-.987-5.597.439-1.317.768-2.744 1.316-3.842 2.742-5.049 6.142-9.219 10.748-12.512 2.084-1.537 4.277-2.744 6.69-3.512 4.277-1.208 8.225-.769 11.954 1.536.987.549 1.535.439 2.303-.219 1.536-1.317 3.071-2.525 4.606-3.842 1.207-1.207 2.303-1.536 3.839-.768.219.22.329.22.548.22.329 1.317 0 2.304-.548 3.292-1.755 2.744-3.51 5.378-5.155 8.122-1.206 1.756-2.084 3.622-3.071 5.598-.987 1.975-.438 2.853 1.975 2.853 1.974 0 3.838-.219 5.812-.548 8.993-1.537 17.877-4.281 26.541-7.464 4.386-1.756 8.883-3.292 13.27-5.049.877.22 2.083 0 3.399.769zm-80.279 19.646c.987-.439 1.755-.549 2.303-.988 1.974-1.317 3.839-2.524 5.594-4.061 5.593-4.609 11.186-9.219 16.67-13.829.219-.219.438-.549.548-.988-2.522-1.975-5.155-2.085-8.116-1.207-2.522.768-4.606 2.085-6.58 3.622-4.058 3.622-12.173 11.085-10.419 17.451zM770 116.671v1.207c-5.045 1.756-9.432 4.39-13.819 7.134-25.114 15.805-49.571 32.488-73.15 50.598-19.96 15.146-39.153 31.39-58.016 48.073l-39.591 36-9.213 8.122c-1.206 1.207-2.522 1.756-3.838 2.305a1.409 1.409 0 01-1.755-.988l-.439-1.207c-1.206-1.756-.329-3.073.768-4.391 4.277-5.378 8.225-10.756 12.722-15.914 16.889-20.415 34.985-39.842 52.861-59.378 25.883-28.647 52.642-56.525 79.951-83.964 5.044-5.049 9.76-10.427 14.586-15.585l2.084-3.073-.549-.549-2.303.988-23.579 10.975c-17.657 8.122-35.753 15.366-54.178 21.293-6.69 2.085-13.489 4.061-20.508 4.829a9.416 9.416 0 01-3.51 0c-4.057-.439-5.593-2.305-5.922-6.695-.219-2.085.768-4.061 2.084-5.817 1.316-1.536 4.825-1.756 6.361-.439l.439.768c-.549.769-1.207.769-1.975.549-.987-.439-1.754 0-2.083.988-.549 1.207-1.207 2.305-1.316 3.512-.439 2.744 1.206 4.39 3.838 4.281 2.742-.22 5.374-.549 7.896-1.208 10.419-2.085 20.399-5.597 30.379-9.219 17.328-6.366 34.218-13.5 50.888-21.183l11.296-5.268c1.974-.769 3.838-1.208 5.922-.55.987.44 1.535.77 1.316 1.757-.219 1.207-.439 2.524-.987 3.512-1.535 2.305-3.071 4.61-4.826 6.585-6.909 7.464-13.818 15.147-20.947 22.501-26.101 26.89-51.435 54.548-76.44 82.646l-42.443 48.402-1.755 1.756v.549l1.755-1.756c26.65-24.366 54.177-47.854 82.582-70.024 23.031-17.891 47.049-34.244 71.615-49.83 5.374-3.512 10.529-7.134 16.341-9.768l2.852-1.317c1.974-.988 1.974-.988 4.058-.219l.548-.988z" fill="#B20932"/></svg>