<svg width="1440" height="552" fill="none" xmlns="http://www.w3.org/2000/svg"><path opacity=".58" d="M-56.8 551.5C58.4 480.4 178 408.3 311.6 378.3c69.3-15.5 139.7-17 209.7-5.5 70.6 11.6 138.8 33.6 207.3 53.7 118.3 34.7 250 65.2 370.4 22.1 50.1-17.9 93.3-49.1 127.9-89.4 32.5-37.8 57.3-81.4 80.1-125.6 45.8-88.7 84.6-187.6 161.9-254.5 9.5-8.2 19.5-15.8 29.9-22.7 1.6-1.1.1-3.7-1.5-2.6-84.1 55.9-128.8 149.9-172.4 237.6-45.3 91.1-95 188.4-188.9 237.7-115.1 60.5-253.7 37.4-373.2 4C694 414 626.1 391 556 376.3c-67-14-135-18.8-202.9-8.7C219.4 387.3 97.9 454-16.2 523.1a3648 3648 0 00-42.1 25.8c-1.6 1-.1 3.6 1.5 2.6z" fill="#999"/></svg>