<svg width="1146" height="510" fill="none" xmlns="http://www.w3.org/2000/svg"><path opacity=".58" d="M3.4 509.4C72.8 442.6 142.9 375 225.9 325.1c39.3-23.6 81.2-43.1 125.4-55.8 47.3-13.5 96.1-17.5 145.2-15.4 98 4.2 194.8 28.9 293.3 21.4 44.1-3.3 87.8-13.4 127.2-33.9 36.3-19 68-45.9 94.8-76.7 59.7-68.8 93-155 121.9-240.2 3.8-11.2 7.6-22.5 11.3-33.8.6-1.8-2.3-2.6-2.9-.8-29.3 87.9-59.3 178-116.1 252.5-25.5 33.4-56.1 63.3-91.8 85.6-38.9 24.2-83 37.5-128.3 42.7-96.6 11-192.3-12-288.3-18.7-48.5-3.4-97.4-2.2-145 8.6-43.3 9.9-84.9 26.8-123.9 47.9-83.1 45-153.6 108.9-221.5 173.7-8.6 8.3-17.2 16.5-25.8 24.8-1.5 1.6.6 3.8 2 2.4z" fill="#999"/></svg>