<svg width="1440" height="213" fill="none" xmlns="http://www.w3.org/2000/svg"><path opacity=".58" d="M-52.7 108.1c74.4-66.4 173-97.8 271.3-103.8 110.2-6.8 219.1 18.7 323.1 53C651.6 93.5 758 139.9 869.1 172.8c102.6 30.4 210.8 49.6 317.8 35 90.9-12.4 181-48.3 246.8-113.6 8.1-8 15.8-16.5 23-25.3 1.2-1.5-.9-3.6-2.1-2.1-60.9 73.8-150.4 116.9-243.3 134.1-107.7 19.9-217.8 3.9-322.2-25.4-111.6-31.3-218.2-77.4-327.7-114.7C458.1 25.6 350.2-2.4 240.2.5 145.2 3 48.2 27.7-28.9 85c-9 6.7-17.6 13.7-25.9 21.2-1.5 1 .7 3.2 2.1 1.9z" fill="#999"/></svg>