<svg width="20" height="20" fill="none" xmlns="http://www.w3.org/2000/svg"><g clip-path="url(#clip0_503:6764)" fill="#fff"><path d="M16.925 11.476c.637.622 1.31 1.207 1.88 1.892.253.304.492.618.675.971.259.502.024 1.054-.426 1.084l-2.797-.001c-.722.06-1.297-.23-1.781-.724-.388-.395-.746-.814-1.119-1.222a2.65 2.65 0 00-.503-.448c-.382-.248-.713-.172-.932.227-.222.405-.272.853-.294 1.305-.03.659-.23.832-.89.862-1.415.067-2.757-.147-4.004-.86-1.099-.63-1.951-1.518-2.693-2.523C2.596 10.082 1.49 7.932.496 5.721c-.224-.498-.06-.766.49-.775a76.001 76.001 0 012.738-.001c.371.005.617.218.76.568a16.978 16.978 0 001.856 3.44c.202.285.408.57.701.77.325.223.572.15.724-.212.097-.23.14-.476.161-.721.073-.845.082-1.688-.045-2.53-.078-.524-.373-.864-.897-.964-.268-.05-.228-.15-.098-.302.224-.264.436-.427.857-.427h3.162c.498.098.608.321.676.822l.003 3.512c-.005.194.097.77.446.898.28.091.464-.133.632-.31.757-.803 1.297-1.753 1.78-2.736.214-.432.398-.881.576-1.33.132-.333.34-.496.715-.489l3.043.003c.09 0 .181.001.269.016.512.087.653.308.495.809-.25.785-.735 1.44-1.21 2.097-.507.703-1.05 1.38-1.553 2.087-.463.645-.426.97.148 1.53z"/><path d="M10.263 15.832c-1.42 0-2.642-.304-3.727-.925-1.032-.59-1.927-1.427-2.816-2.63C2.457 10.564 1.35 8.593.132 5.883c-.17-.38-.176-.698-.017-.949.159-.25.45-.38.863-.387a75.73 75.73 0 012.753-.002c.51.008.91.298 1.121.817.515 1.266 1.108 2.365 1.813 3.36.176.249.359.506.601.672h.001a.088.088 0 00.13-.037l.001-.002c.067-.159.109-.35.131-.602.08-.937.067-1.71-.042-2.434-.055-.372-.233-.567-.578-.632-.098-.019-.395-.075-.495-.358-.1-.28.095-.508.168-.594.252-.295.567-.568 1.161-.568h3.162c.024 0 .05.002.073.007.797.156.93.659.998 1.16a.414.414 0 01.004.054l.002 3.512v.011a.922.922 0 00.048.273c.042.132.212.17.306.068l.002-.001.034-.036c.767-.814 1.296-1.79 1.712-2.638.217-.44.405-.902.564-1.302.199-.5.563-.749 1.089-.74l3.04.002c.104 0 .216.002.335.022.243.042.587.132.773.436.185.305.108.652.034.886-.26.817-.744 1.488-1.212 2.136l-.054.075c-.24.332-.49.662-.733.982a46.2 46.2 0 00-.82 1.102c-.176.247-.253.414-.242.526.012.115.121.27.345.488.167.163.34.326.507.485.475.45.966.915 1.401 1.437.24.289.513.638.723 1.043.2.39.204.83.008 1.177a.936.936 0 01-.788.489l-2.782-.002c-.774.06-1.474-.224-2.08-.843-.27-.273-.526-.56-.773-.837-.117-.13-.237-.265-.356-.395a2.3 2.3 0 00-.426-.382c-.091-.06-.173-.088-.219-.076-.043.01-.098.07-.146.16-.175.316-.225.681-.247 1.132-.038.853-.395 1.201-1.27 1.24a9.11 9.11 0 01-.492.013zM.799 5.369a.677.677 0 00.06.189c1.195 2.656 2.275 4.582 3.502 6.245.821 1.112 1.638 1.879 2.57 2.412 1.073.614 2.312.878 3.787.809.307-.014.4-.06.427-.086.02-.02.071-.099.085-.396.023-.487.081-1.002.343-1.479.202-.369.465-.502.65-.549.188-.047.487-.054.848.18.24.157.428.347.58.513l.362.402c.242.27.491.55.747.81.45.459.916.651 1.464.606a.4.4 0 01.033-.002l2.78.002c.025-.003.072-.016.11-.084.048-.083.07-.242-.021-.42a5.193 5.193 0 00-.627-.899c-.404-.485-.858-.914-1.337-1.368-.17-.16-.344-.326-.515-.493-.722-.704-.773-1.24-.194-2.047.27-.38.556-.757.832-1.12.24-.317.487-.643.722-.968l.054-.075c.451-.625.878-1.215 1.099-1.91a.634.634 0 00.042-.228.644.644 0 00-.224-.067 1.296 1.296 0 00-.202-.011l-3.043-.003h-.008c-.179-.004-.254.03-.337.238-.165.415-.36.895-.59 1.36-.441.9-1.007 1.941-1.847 2.832l-.031.034c-.179.19-.511.546-1.014.381l-.013-.005c-.552-.202-.714-.942-.708-1.276l-.002-3.48c-.018-.123-.047-.282-.097-.35-.012-.015-.047-.062-.222-.101h-3.12a.623.623 0 00-.3.06c.457.208.748.614.831 1.177.119.786.134 1.62.048 2.621a2.76 2.76 0 01-.19.843c-.156.368-.387.504-.554.552-.166.05-.433.06-.763-.166-.36-.246-.605-.591-.801-.869-.74-1.045-1.362-2.197-1.9-3.52-.114-.279-.265-.318-.397-.32a74.943 74.943 0 00-2.725.001.683.683 0 00-.194.025z"/><path d="M2.55 7.205a.398.398 0 01-.355-.22 43.57 43.57 0 01-.178-.354.398.398 0 11.715-.353c.057.117.115.233.174.348a.398.398 0 01-.356.579zm2.534 4.19a.398.398 0 01-.32-.162 27.227 27.227 0 01-1.925-3.027.398.398 0 01.697-.386 26.428 26.428 0 001.869 2.94.399.399 0 01-.32.635z"/></g><defs><clipPath id="clip0_503:6764"><path fill="#fff" d="M0 0h20v20H0z"/></clipPath></defs></svg>